<?xml version="1.0" encoding="UTF-8"?>
<!-- Generator: Adobe Illustrator 21.0.0, SVG Export Plug-In . SVG Version: 6.00 Build 0)  -->
<svg version="1.1" xmlns="http://www.w3.org/2000/svg" xmlns:xlink="http://www.w3.org/1999/xlink" x="0px" y="0px" viewBox="0 0 518.7 46.7" style="enable-background:new 0 0 518.7 46.7;" xml:space="preserve">
<style type="text/css">
	.st0{fill:#F0F0F0;}
	.st1{clip-path:url(#XMLID_70_);}
	.st2{fill:#FFFFFF;}
	.st3{fill:#CAC8C8;}
	.st4{clip-path:url(#SVGID_2_);}
	.st5{clip-path:url(#SVGID_4_);fill:#1D1D1B;}
	.st6{clip-path:url(#SVGID_6_);}
	.st7{clip-path:url(#SVGID_8_);fill:#1D1D1B;}
	.st8{clip-path:url(#SVGID_10_);}
	.st9{clip-path:url(#SVGID_12_);fill:#1D1D1B;}
	.st10{fill:#EDEDED;}
	.st11{clip-path:url(#SVGID_14_);}
	.st12{clip-path:url(#SVGID_16_);fill:#1D1D1B;}
	.st13{fill:#B0B0B0;}
	.st14{clip-path:url(#SVGID_18_);}
	.st15{clip-path:url(#SVGID_20_);fill:#1D1D1B;}
	.st16{fill:#777777;}
	.st17{clip-path:url(#SVGID_22_);}
	.st18{clip-path:url(#SVGID_24_);fill:#FFFFFF;}
	.st19{fill:#1C1C1C;}
	.st20{clip-path:url(#SVGID_26_);}
	.st21{clip-path:url(#SVGID_28_);fill:#FFFFFF;}
	.st22{clip-path:url(#SVGID_30_);}
	.st23{clip-path:url(#SVGID_32_);fill:#1D1D1B;}
	.st24{clip-path:url(#SVGID_34_);}
	.st25{clip-path:url(#SVGID_36_);fill:#1D1D1B;}
	.st26{clip-path:url(#SVGID_38_);}
	.st27{clip-path:url(#SVGID_40_);}
	.st28{fill:#0095FF;}
	.st29{fill:#8AD2E6;}
	.st30{fill:#333333;}
	.st31{fill:#F1C2B2;}
	.st32{fill:#4C9462;}
	.st33{fill:#F9BE00;}
	.st34{fill:#8F7E34;}
	.st35{fill:#B5B895;}
	.st36{fill:#E63C2F;}
	.st37{fill:#985F35;}
	.st38{fill:#B31AAB;}
	.st39{fill:#0071CE;}
	.st40{fill:#FF4C00;}
	.st41{fill:none;stroke:#0096FF;stroke-width:0.5;}
	.st42{fill:none;stroke:#0096FF;stroke-width:0.5;stroke-linecap:round;stroke-linejoin:round;}
	.st43{fill:#0096FF;}
	.st44{display:none;}
	.st45{display:inline;}
	.st46{clip-path:url(#XMLID_73_);}
	.st47{clip-path:url(#XMLID_74_);}
	.st48{clip-path:url(#XMLID_115_);}
	.st49{clip-path:url(#XMLID_145_);}
	.st50{fill:none;stroke:#0096FF;stroke-width:0.375;}
	.st51{fill:none;stroke:#0096FF;stroke-width:0.75;stroke-linecap:round;stroke-linejoin:round;stroke-dasharray:0,2.5;}
	.st52{clip-path:url(#SVGID_42_);}
	.st53{clip-path:url(#SVGID_44_);fill:#1D1D1B;}
	.st54{clip-path:url(#SVGID_46_);}
	.st55{clip-path:url(#SVGID_48_);fill:#1D1D1B;}
	.st56{clip-path:url(#SVGID_50_);}
	.st57{clip-path:url(#SVGID_52_);fill:#1D1D1B;}
	.st58{clip-path:url(#SVGID_54_);}
	.st59{clip-path:url(#SVGID_56_);fill:#1D1D1B;}
	.st60{clip-path:url(#SVGID_58_);}
	.st61{clip-path:url(#SVGID_60_);fill:#1D1D1B;}
	.st62{clip-path:url(#SVGID_62_);}
	.st63{clip-path:url(#SVGID_64_);fill:#1D1D1B;}
	.st64{clip-path:url(#SVGID_66_);}
	.st65{clip-path:url(#SVGID_68_);}
	.st66{clip-path:url(#SVGID_70_);}
	.st67{clip-path:url(#SVGID_72_);}
	.st68{clip-path:url(#SVGID_74_);}
	.st69{clip-path:url(#SVGID_76_);}
	.st70{clip-path:url(#SVGID_78_);}
	.st71{clip-path:url(#SVGID_80_);}
	.st72{clip-path:url(#SVGID_82_);}
	.st73{clip-path:url(#SVGID_84_);}
	.st74{clip-path:url(#SVGID_86_);}
	.st75{clip-path:url(#SVGID_88_);}
	.st76{clip-path:url(#SVGID_90_);}
	.st77{clip-path:url(#SVGID_92_);}
	.st78{fill:#BBBD8E;}
	.st79{clip-path:url(#SVGID_94_);}
	.st80{clip-path:url(#SVGID_96_);}
	.st81{clip-path:url(#SVGID_98_);}
	.st82{clip-path:url(#SVGID_100_);}
	.st83{clip-path:url(#SVGID_102_);}
	.st84{clip-path:url(#SVGID_104_);}
	.st85{clip-path:url(#SVGID_106_);}
	.st86{clip-path:url(#SVGID_108_);}
	.st87{clip-path:url(#SVGID_110_);}
	.st88{clip-path:url(#SVGID_112_);}
	.st89{clip-path:url(#SVGID_114_);}
	.st90{clip-path:url(#SVGID_116_);}
	.st91{clip-path:url(#SVGID_118_);}
	.st92{clip-path:url(#SVGID_120_);}
	.st93{clip-path:url(#SVGID_122_);}
	.st94{clip-path:url(#SVGID_124_);}
	.st95{clip-path:url(#SVGID_126_);}
	.st96{clip-path:url(#SVGID_128_);}
	.st97{clip-path:url(#SVGID_130_);}
	.st98{clip-path:url(#SVGID_132_);}
	.st99{clip-path:url(#SVGID_134_);}
	.st100{clip-path:url(#SVGID_136_);}
	.st101{clip-path:url(#SVGID_138_);}
	.st102{clip-path:url(#SVGID_140_);}
	.st103{clip-path:url(#SVGID_142_);}
	.st104{clip-path:url(#SVGID_144_);}
	.st105{clip-path:url(#SVGID_146_);}
	.st106{clip-path:url(#SVGID_148_);}
	.st107{clip-path:url(#SVGID_150_);}
	.st108{clip-path:url(#SVGID_152_);}
	.st109{clip-path:url(#SVGID_154_);}
	.st110{clip-path:url(#SVGID_156_);}
	.st111{clip-path:url(#SVGID_158_);}
	.st112{clip-path:url(#SVGID_160_);}
	.st113{clip-path:url(#SVGID_162_);}
	.st114{clip-path:url(#SVGID_164_);fill:#FFFFFF;}
	.st115{clip-path:url(#SVGID_166_);}
	.st116{clip-path:url(#SVGID_168_);fill:#FFFFFF;}
	.st117{clip-path:url(#SVGID_170_);}
	.st118{clip-path:url(#SVGID_172_);fill:#1D1D1B;}
	.st119{fill:#1380C4;}
	.st120{fill:#C7C5C4;}
	.st121{clip-path:url(#SVGID_174_);}
	.st122{clip-path:url(#SVGID_176_);fill:#1D1D1B;}
	.st123{clip-path:url(#SVGID_178_);}
	.st124{clip-path:url(#SVGID_180_);fill:#FFFFFF;}
	.st125{fill:#1D1D1B;}
	.st126{clip-path:url(#SVGID_182_);}
	.st127{clip-path:url(#SVGID_184_);fill:#1D1D1B;}
	.st128{clip-path:url(#SVGID_186_);}
	.st129{clip-path:url(#SVGID_188_);fill:#1D1D1B;}
	.st130{clip-path:url(#SVGID_190_);}
	.st131{clip-path:url(#SVGID_192_);fill:#1D1D1B;}
	.st132{fill:#DFDFDF;}
	.st133{fill:#B6B6B6;}
	.st134{fill:#69A7D1;}
	.st135{clip-path:url(#SVGID_194_);}
	.st136{clip-path:url(#SVGID_196_);}
	.st137{fill:#1F7ACC;}
	.st138{fill:#DBDBDB;}
	.st139{clip-path:url(#XMLID_185_);}
	.st140{clip-path:url(#XMLID_262_);}
	.st141{clip-path:url(#SVGID_198_);}
	.st142{clip-path:url(#SVGID_200_);fill:#1D1D1B;}
	.st143{clip-path:url(#SVGID_202_);}
	.st144{clip-path:url(#SVGID_204_);fill:#1D1D1B;}
	.st145{clip-path:url(#SVGID_206_);}
	.st146{clip-path:url(#SVGID_208_);fill:#1D1D1B;}
	.st147{clip-path:url(#SVGID_210_);}
	.st148{clip-path:url(#SVGID_212_);fill:#1D1D1B;}
	.st149{clip-path:url(#SVGID_214_);}
	.st150{clip-path:url(#SVGID_216_);fill:#1D1D1B;}
	.st151{clip-path:url(#SVGID_218_);}
	.st152{clip-path:url(#SVGID_220_);fill:#1D1D1B;}
	.st153{clip-path:url(#SVGID_222_);}
	.st154{clip-path:url(#SVGID_224_);fill:#1D1D1B;}
	.st155{clip-path:url(#SVGID_226_);}
	.st156{clip-path:url(#SVGID_228_);fill:#1D1D1B;}
	.st157{clip-path:url(#SVGID_230_);}
	.st158{clip-path:url(#SVGID_232_);fill:#1D1D1B;}
	.st159{clip-path:url(#SVGID_234_);}
	.st160{clip-path:url(#SVGID_236_);fill:#1D1D1B;}
	.st161{clip-path:url(#SVGID_238_);}
	.st162{clip-path:url(#SVGID_240_);fill:#1D1D1B;}
	.st163{fill:none;}
	.st164{fill:none;stroke:#0096FF;stroke-width:0.5;stroke-miterlimit:10;}
	.st165{clip-path:url(#SVGID_242_);}
	.st166{clip-path:url(#SVGID_244_);fill:#1D1D1B;}
	.st167{clip-path:url(#SVGID_246_);}
	.st168{clip-path:url(#SVGID_248_);fill:#1D1D1B;}
	.st169{clip-path:url(#SVGID_250_);}
	.st170{clip-path:url(#SVGID_252_);fill:#1D1D1B;}
	.st171{clip-path:url(#SVGID_254_);}
	.st172{clip-path:url(#SVGID_256_);fill:#1D1D1B;}
	.st173{clip-path:url(#SVGID_258_);}
	.st174{clip-path:url(#SVGID_260_);fill:#1D1D1B;}
	.st175{clip-path:url(#SVGID_262_);}
	.st176{clip-path:url(#SVGID_264_);fill:#1D1D1B;}
	.st177{clip-path:url(#SVGID_266_);}
	.st178{clip-path:url(#SVGID_268_);fill:#1D1D1B;}
	.st179{clip-path:url(#SVGID_270_);}
	.st180{clip-path:url(#SVGID_272_);fill:#1D1D1B;}
	.st181{clip-path:url(#SVGID_274_);}
	.st182{clip-path:url(#SVGID_276_);fill:#1D1D1B;}
	.st183{clip-path:url(#SVGID_278_);}
	.st184{clip-path:url(#SVGID_280_);fill:#1D1D1B;}
	.st185{fill:#4E9A73;}
	.st186{clip-path:url(#SVGID_282_);}
	.st187{clip-path:url(#SVGID_284_);fill:#1D1D1B;}
	.st188{clip-path:url(#SVGID_286_);}
	.st189{clip-path:url(#SVGID_288_);fill:#1D1D1B;}
	.st190{clip-path:url(#SVGID_290_);}
	.st191{clip-path:url(#SVGID_292_);fill:#1D1D1B;}
	.st192{clip-path:url(#SVGID_294_);}
	.st193{clip-path:url(#SVGID_296_);fill:#1D1D1B;}
	.st194{clip-path:url(#SVGID_298_);}
	.st195{clip-path:url(#SVGID_300_);fill:#1D1D1B;}
	.st196{clip-path:url(#SVGID_302_);}
	.st197{clip-path:url(#SVGID_304_);fill:#1D1D1B;}
	.st198{clip-path:url(#SVGID_306_);}
	.st199{clip-path:url(#SVGID_308_);fill:#1D1D1B;}
	.st200{clip-path:url(#SVGID_310_);}
	.st201{clip-path:url(#SVGID_312_);fill:#1D1D1B;}
	.st202{clip-path:url(#SVGID_314_);}
	.st203{clip-path:url(#SVGID_316_);fill:#1D1D1B;}
	.st204{clip-path:url(#SVGID_318_);}
	.st205{clip-path:url(#SVGID_320_);fill:#1D1D1B;}
	.st206{clip-path:url(#SVGID_322_);}
	.st207{clip-path:url(#SVGID_324_);fill:#1D1D1B;}
	.st208{clip-path:url(#SVGID_326_);}
	.st209{clip-path:url(#SVGID_328_);fill:#1D1D1B;}
	.st210{clip-path:url(#SVGID_330_);}
	.st211{clip-path:url(#SVGID_332_);fill:#1D1D1B;}
	.st212{clip-path:url(#SVGID_334_);}
	.st213{clip-path:url(#SVGID_336_);fill:#1D1D1B;}
	.st214{clip-path:url(#SVGID_338_);}
	.st215{clip-path:url(#SVGID_340_);fill:#1D1D1B;}
	.st216{clip-path:url(#SVGID_342_);}
	.st217{clip-path:url(#SVGID_344_);fill:#1D1D1B;}
	.st218{clip-path:url(#SVGID_346_);}
	.st219{clip-path:url(#SVGID_348_);fill:#1D1D1B;}
	.st220{clip-path:url(#SVGID_350_);}
	.st221{clip-path:url(#SVGID_352_);fill:#1D1D1B;}
	.st222{clip-path:url(#SVGID_354_);}
	.st223{clip-path:url(#SVGID_356_);fill:#1D1D1B;}
	.st224{clip-path:url(#SVGID_358_);}
	.st225{clip-path:url(#SVGID_360_);fill:#1D1D1B;}
	.st226{clip-path:url(#SVGID_362_);}
	.st227{clip-path:url(#SVGID_364_);fill:#1D1D1B;}
	.st228{clip-path:url(#SVGID_366_);}
	.st229{clip-path:url(#SVGID_368_);fill:#1D1D1B;}
	.st230{clip-path:url(#SVGID_370_);}
	.st231{clip-path:url(#SVGID_372_);fill:#1D1D1B;}
	.st232{clip-path:url(#SVGID_374_);}
	.st233{clip-path:url(#SVGID_376_);fill:#1D1D1B;}
	.st234{clip-path:url(#SVGID_378_);}
	.st235{clip-path:url(#SVGID_380_);fill:#1D1D1B;}
	.st236{clip-path:url(#SVGID_382_);}
	.st237{clip-path:url(#SVGID_384_);fill:#1D1D1B;}
	.st238{fill:#A67051;}
	.st239{clip-path:url(#SVGID_386_);}
	.st240{clip-path:url(#SVGID_388_);fill:#1D1D1B;}
	.st241{clip-path:url(#SVGID_390_);}
	.st242{clip-path:url(#SVGID_392_);fill:#1D1D1B;}
	.st243{clip-path:url(#SVGID_394_);}
	.st244{clip-path:url(#SVGID_396_);fill:#1D1D1B;}
	.st245{clip-path:url(#SVGID_398_);}
	.st246{clip-path:url(#SVGID_400_);fill:#1D1D1B;}
	.st247{clip-path:url(#SVGID_402_);}
	.st248{clip-path:url(#SVGID_404_);fill:#1D1D1B;}
	.st249{fill:#FAC6B8;}
	.st250{clip-path:url(#SVGID_406_);}
	.st251{clip-path:url(#SVGID_408_);}
	.st252{clip-path:url(#SVGID_410_);fill:#1D1D1B;}
	.st253{clip-path:url(#SVGID_412_);}
	.st254{clip-path:url(#SVGID_414_);fill:#1D1D1B;}
	.st255{clip-path:url(#SVGID_416_);}
	.st256{clip-path:url(#SVGID_418_);fill:#1D1D1B;}
	.st257{clip-path:url(#SVGID_420_);}
	.st258{clip-path:url(#SVGID_422_);fill:#1D1D1B;}
	.st259{clip-path:url(#SVGID_424_);}
	.st260{clip-path:url(#SVGID_426_);fill:#1D1D1B;}
	.st261{clip-path:url(#SVGID_428_);}
	.st262{clip-path:url(#SVGID_430_);fill:#1D1D1B;}
	.st263{clip-path:url(#SVGID_432_);}
	.st264{clip-path:url(#SVGID_434_);fill:#1D1D1B;}
	.st265{clip-path:url(#SVGID_436_);}
	.st266{clip-path:url(#SVGID_438_);fill:#1D1D1B;}
	.st267{clip-path:url(#SVGID_440_);}
	.st268{clip-path:url(#SVGID_442_);fill:#1D1D1B;}
	.st269{clip-path:url(#SVGID_444_);}
	.st270{clip-path:url(#SVGID_446_);fill:#1D1D1B;}
	.st271{clip-path:url(#SVGID_448_);}
	.st272{clip-path:url(#SVGID_450_);fill:#1D1D1B;}
	.st273{clip-path:url(#SVGID_452_);}
	.st274{clip-path:url(#SVGID_454_);fill:#1D1D1B;}
	.st275{clip-path:url(#SVGID_456_);}
	.st276{clip-path:url(#SVGID_458_);fill:#1D1D1B;}
	.st277{clip-path:url(#SVGID_460_);}
	.st278{clip-path:url(#SVGID_462_);fill:#1D1D1B;}
	.st279{clip-path:url(#SVGID_464_);}
	.st280{clip-path:url(#SVGID_466_);fill:#1D1D1B;}
	.st281{clip-path:url(#SVGID_468_);}
	.st282{clip-path:url(#SVGID_470_);fill:#1D1D1B;}
	.st283{clip-path:url(#SVGID_472_);}
	.st284{clip-path:url(#SVGID_474_);fill:#1D1D1B;}
	.st285{clip-path:url(#SVGID_476_);}
	.st286{clip-path:url(#SVGID_478_);fill:#1D1D1B;}
	.st287{clip-path:url(#SVGID_480_);}
	.st288{clip-path:url(#SVGID_482_);fill:#1D1D1B;}
	.st289{clip-path:url(#SVGID_484_);}
	.st290{clip-path:url(#SVGID_486_);fill:#1D1D1B;}
	.st291{clip-path:url(#SVGID_488_);}
	.st292{clip-path:url(#SVGID_490_);fill:#1D1D1B;}
	.st293{clip-path:url(#SVGID_492_);}
	.st294{clip-path:url(#SVGID_494_);fill:#1D1D1B;}
	.st295{clip-path:url(#SVGID_496_);}
	.st296{clip-path:url(#SVGID_498_);fill:#1D1D1B;}
	.st297{clip-path:url(#SVGID_500_);}
	.st298{clip-path:url(#SVGID_502_);fill:#1D1D1B;}
	.st299{clip-path:url(#SVGID_504_);}
	.st300{clip-path:url(#SVGID_506_);fill:#1D1D1B;}
	.st301{clip-path:url(#SVGID_508_);}
	.st302{clip-path:url(#SVGID_510_);fill:#1D1D1B;}
	.st303{clip-path:url(#SVGID_512_);}
	.st304{clip-path:url(#SVGID_514_);fill:#1D1D1B;}
	.st305{clip-path:url(#SVGID_516_);}
	.st306{clip-path:url(#SVGID_518_);fill:#1D1D1B;}
	.st307{clip-path:url(#SVGID_520_);}
	.st308{clip-path:url(#SVGID_522_);fill:#1D1D1B;}
	.st309{clip-path:url(#SVGID_524_);fill:#F1C2B2;}
	.st310{clip-path:url(#SVGID_524_);}
	.st311{clip-path:url(#SVGID_526_);}
	.st312{clip-path:url(#SVGID_528_);fill:#1D1D1B;}
	.st313{clip-path:url(#SVGID_530_);}
	.st314{clip-path:url(#SVGID_532_);fill:#1D1D1B;}
	.st315{clip-path:url(#SVGID_534_);}
	.st316{clip-path:url(#SVGID_536_);fill:#1D1D1B;}
	.st317{clip-path:url(#SVGID_538_);}
	.st318{clip-path:url(#SVGID_540_);fill:#1D1D1B;}
	.st319{clip-path:url(#SVGID_542_);}
	.st320{clip-path:url(#SVGID_544_);fill:#1D1D1B;}
	.st321{clip-path:url(#SVGID_546_);}
	.st322{clip-path:url(#SVGID_548_);fill:#1D1D1B;}
	.st323{clip-path:url(#SVGID_550_);}
	.st324{clip-path:url(#SVGID_552_);fill:#1D1D1B;}
	.st325{clip-path:url(#SVGID_554_);fill:#F1C2B2;}
	.st326{clip-path:url(#SVGID_554_);fill:#FAC6B8;}
	.st327{clip-path:url(#SVGID_554_);}
	.st328{clip-path:url(#SVGID_556_);}
	.st329{clip-path:url(#SVGID_558_);fill:#1D1D1B;}
	.st330{clip-path:url(#SVGID_560_);}
	.st331{clip-path:url(#SVGID_562_);fill:#1D1D1B;}
	.st332{clip-path:url(#SVGID_564_);}
	.st333{clip-path:url(#SVGID_566_);fill:#1D1D1B;}
	.st334{clip-path:url(#SVGID_568_);}
	.st335{clip-path:url(#SVGID_570_);fill:#1D1D1B;}
	.st336{clip-path:url(#SVGID_572_);}
	.st337{clip-path:url(#SVGID_574_);fill:#1D1D1B;}
	.st338{clip-path:url(#SVGID_576_);}
	.st339{clip-path:url(#SVGID_578_);fill:#1D1D1B;}
	.st340{clip-path:url(#SVGID_580_);}
	.st341{clip-path:url(#SVGID_582_);fill:#1D1D1B;}
	.st342{clip-path:url(#SVGID_584_);}
	.st343{clip-path:url(#SVGID_586_);fill:#1D1D1B;}
	.st344{clip-path:url(#SVGID_588_);}
	.st345{clip-path:url(#SVGID_590_);fill:#1D1D1B;}
	.st346{clip-path:url(#SVGID_592_);}
	.st347{clip-path:url(#SVGID_594_);fill:#1D1D1B;}
	.st348{clip-path:url(#SVGID_596_);}
	.st349{clip-path:url(#SVGID_598_);fill:#1D1D1B;}
	.st350{clip-path:url(#SVGID_600_);}
	.st351{clip-path:url(#SVGID_602_);fill:#1D1D1B;}
	.st352{clip-path:url(#SVGID_604_);}
	.st353{clip-path:url(#SVGID_606_);fill:#1D1D1B;}
	.st354{clip-path:url(#SVGID_608_);}
	.st355{clip-path:url(#SVGID_610_);fill:#1D1D1B;}
	.st356{clip-path:url(#SVGID_612_);}
	.st357{clip-path:url(#SVGID_614_);fill:#1D1D1B;}
	.st358{clip-path:url(#SVGID_616_);}
	.st359{clip-path:url(#SVGID_618_);fill:#1D1D1B;}
	.st360{clip-path:url(#SVGID_620_);}
	.st361{clip-path:url(#SVGID_622_);fill:#1D1D1B;}
	.st362{clip-path:url(#SVGID_624_);}
	.st363{clip-path:url(#SVGID_626_);fill:#1D1D1B;}
	.st364{clip-path:url(#SVGID_628_);}
	.st365{clip-path:url(#SVGID_630_);fill:#1D1D1B;}
	.st366{clip-path:url(#SVGID_632_);}
	.st367{clip-path:url(#SVGID_634_);fill:#1D1D1B;}
	.st368{clip-path:url(#SVGID_636_);}
	.st369{clip-path:url(#SVGID_638_);fill:#1D1D1B;}
	.st370{clip-path:url(#SVGID_640_);}
	.st371{clip-path:url(#SVGID_642_);fill:#FFFFFF;}
	.st372{clip-path:url(#SVGID_644_);}
	.st373{clip-path:url(#SVGID_646_);fill:#1D1D1B;}
	.st374{clip-path:url(#SVGID_648_);}
	.st375{clip-path:url(#SVGID_650_);fill:#1D1D1B;}
	.st376{fill:none;stroke:#FF222B;stroke-width:1.754;}
	.st377{clip-path:url(#SVGID_652_);}
	.st378{clip-path:url(#SVGID_654_);fill:#1D1D1B;}
	.st379{clip-path:url(#SVGID_656_);}
	.st380{clip-path:url(#SVGID_658_);fill:#1D1D1B;}
	.st381{clip-path:url(#SVGID_660_);}
	.st382{clip-path:url(#SVGID_662_);fill:#1D1D1B;}
	.st383{clip-path:url(#SVGID_664_);}
	.st384{clip-path:url(#SVGID_666_);fill:#1D1D1B;}
	.st385{clip-path:url(#SVGID_668_);}
	.st386{clip-path:url(#SVGID_670_);fill:#1D1D1B;}
	.st387{clip-path:url(#SVGID_672_);}
	.st388{clip-path:url(#SVGID_674_);fill:#1D1D1B;}
	.st389{clip-path:url(#SVGID_676_);}
	.st390{clip-path:url(#SVGID_678_);fill:#1D1D1B;}
	.st391{clip-path:url(#SVGID_680_);}
	.st392{clip-path:url(#SVGID_682_);fill:#1D1D1B;}
</style>
<g id="Calque_1">
	<g>
		<g>
			<defs>
				<rect id="SVGID_41_" x="-20.6" y="-9.3" width="560" height="75.6"/>
			</defs>
			<clipPath id="SVGID_2_">
				<use xlink:href="#SVGID_41_" style="overflow:visible;"/>
			</clipPath>
			<g class="st4">
				<defs>
					<rect id="SVGID_43_" x="-20.6" y="-9.3" width="560" height="75.6"/>
				</defs>
				<clipPath id="SVGID_4_">
					<use xlink:href="#SVGID_43_" style="overflow:visible;"/>
				</clipPath>
				<path class="st5" d="M39.6,33.4L35,45.7H0v-4.6c4.8-2,7.9-5.4,7.9-11.2v-3C8,19.2,3.2,16.7,0,15.8v-4.6h35.4l1.7,11.4l-2.4,1.5      c-2.9-3.4-6.3-7-11.3-7h-0.6c-6.4,0-9.2,2.9-9.2,9.2h5.1c4.4,0,5.9-2.8,6.4-4.5l0.2-0.8h3v15h-3l-0.2-0.7      c-0.6-1.7-2-4.6-6.4-4.6h-5.1c0,6.2,2.4,9.1,9.9,9.1H24c5.4,0,9.4-4,13.1-8.3L39.6,33.4z M17.4,7.9l5-7.8h9.7v1.1l-10,6.7H17.4z      "/>
				<path class="st5" d="M72.8,10.4L74,21.5l-4.1,1c-2.6-3.4-7.4-5.2-12.5-5.2c-4.2,0-7.7,1.3-7.7,3.8c0,2.1,2.4,3.1,7.6,3.8l5,0.6      c7.7,1,13.7,3.1,13.7,10c0,6.9-6.2,11.1-14.4,11.1c-4.4,0-8.2-1.2-12.2-3.4l-1.2,2.6h-4.7l-2.4-13.2l4.1-1.5      c3.5,5.3,9.1,8.9,16.1,8.9c4.1,0,7.6-1.3,7.6-4.1c0-2.7-3.2-3.4-7.7-3.9l-6-0.7c-3.4-0.4-12.8-1.9-12.8-10.1      c0-7,6.8-10.5,14.2-10.5c4,0,7.1,1,9.5,2.4l0.8-2.6H72.8z"/>
				<path class="st5" d="M113.3,11.2v4.6c-4.5,1.3-6.1,5-3.9,9l4.6,8.9c2.5,4.9,5,6.2,8.9,7.4v4.6h-19.9v-4.5l1.4-0.5      c3.4-1.2,4.8-3.1,3.3-5.7l-0.3-0.6H92.8L92.5,35c-1.6,2.7-0.2,4.6,3.3,5.8l1.4,0.5v4.5H77.3v-4.6c3.9-1.2,6.4-2.5,8.9-7.4      l4.7-9.1c1.9-3.9,0.4-7.5-4-8.8v-4.6H113.3z M105.1,29.7l-5-11.4l-5.2,11.4H105.1z"/>
				<path class="st5" d="M166.4,28.2c0,8.7-6,17.5-18.8,17.5h-22.1v-4.6c5.1-1.8,7.4-5.6,7.4-10.7v-3.7c0-6.7-2.3-9.7-7.4-10.9v-4.6      h23.2C160.6,11.2,166.4,19.7,166.4,28.2 M138.4,26.5v3.8c0,7.7,3.6,9.6,10.7,9.6c7.6,0,11.4-6.4,11.4-11.5      c0-5.1-3.6-11.2-11.1-11.2C142.4,17.1,138.4,19,138.4,26.5"/>
				<path class="st5" d="M177.2,23.6c2.6,0,4.8,2.2,4.8,4.9c0,2.7-2.1,4.9-4.8,4.9c-2.6,0-4.7-2.1-4.7-4.9      C172.5,25.8,174.6,23.6,177.2,23.6"/>
				<path class="st5" d="M224.1,21.9c0,6.5-4.8,10.7-11.5,10.7h-13.4v0.1c0,3.9,3.1,6.9,8,8.4v4.6h-20.9v-4.6      c2.8-1.1,7.3-3.1,7.3-12.3v-1c0-9.1-4.5-11-7.3-12.1v-4.6h25.5C220.2,11.2,224.1,16.5,224.1,21.9 M218.4,22      c0-3.3-2.9-4.9-6.9-4.9h-2.3c-7.3,0-10.2,2.1-10.2,9.4V27h12.6C215.6,27,218.4,25.4,218.4,22"/>
				<path class="st5" d="M245.6,15.8c-1.5,0.3-2.8,1.4-2.8,3.1c0,1.2,0.4,1.9,1.9,3.8l2.7,3.2c0.9-1.1,1.7-2.1,2.6-3.2      c0.1-0.1,0.3-0.3,0.4-0.4c1.2-1.5,1.7-2.3,1.7-3.4c0-1.7-1.3-2.7-2.8-3.1v-4.6h20.3v4.6c-7.9,1.3-11.9,6.3-16.3,12.1l-3,4v1.9      c0,4.4,4.5,6.5,7.6,7.4v4.6h-20.8v-4.6c3-0.9,7.6-3.1,7.6-7.4v-1.9l-3.1-4c-4.6-5.9-8.4-10.7-16.2-12.1v-4.5h20.3V15.8z"/>
				<path class="st5" d="M293.3,31.7h-7.7v0.2c0,4.9,3.1,7.9,7.9,9.2v4.6h-20.9v-4.6c2.8-1.1,7.4-3.1,7.4-12.3v-1      c0-9.1-4.5-11-7.4-12.1v-4.6h24.7c8.9,0,13.1,5.1,13.1,10.5c0,5.2-3.7,9.8-11.5,10c2,3.6,3.8,5.9,7.6,5.9c2.2,0,3.3-0.8,3.9-1.5      c0.2-0.2,0.6-0.6,0.8-0.6c0.4,0,0.6,1,0.7,2.4c0.2,4-1.9,8.4-6.5,8.4C298.8,46.4,295.3,36.8,293.3,31.7 M285.6,26.3h12.7      c4.3,0,6.5-1.8,6.5-4.5s-2.5-4.8-7.8-4.8h-2C288.2,17.1,285.6,19.4,285.6,26.3"/>
				<path class="st5" d="M353.8,33.4l-4.6,12.3h-35v-4.6c4.8-2,7.9-5.4,7.9-11.2v-3c0-7.7-4.8-10.2-7.9-11.1v-4.6h35.4l1.7,11.4      l-2.4,1.5c-2.9-3.4-6.3-7-11.3-7h-0.6c-6.4,0-9.2,2.9-9.2,9.2h5.1c4.4,0,5.9-2.8,6.4-4.5l0.2-0.8h3v15h-3l-0.2-0.7      c-0.6-1.7-2-4.6-6.4-4.6h-5.1c0,6.2,2.4,9.1,9.9,9.1h0.5c5.4,0,9.4-4,13.1-8.3L353.8,33.4z M331.7,7.9l5-7.8h9.7v1.1l-10,6.7      H331.7z"/>
				<path class="st5" d="M385.5,29.1v-1.2c0-4.6-0.3-9.3-7-12.2v-4.4h19.9v4.5c-5.6,2.1-7.4,5.3-7.4,11.2v2.9c0,5.6,1.4,11.1,4,15.9      h-11.8v-2.2c0-6.4-4.7-11.4-8.9-15.7c-2-2.1-4.2-4.4-6.6-7.6V29c0,6.7,1.4,9.7,7.1,12.1v4.6h-19.8v-4.6c5.7-2.2,7-5.4,7-11.3      v-2.9c0-5.5-1.4-9.4-7-11.2v-4.6h16.4c0.8,4.4,3.2,8,6.3,11.6c2.1,2.4,4.2,4.9,6.3,7.3c0.1,0.1,0.2,0.2,0.3,0.3      c0.4,0.5,0.9,0.9,1.1,1.4v-0.1C385.6,30.9,385.5,29.9,385.5,29.1"/>
				<path class="st5" d="M441.3,33.4l-4.6,12.3h-35v-4.6c4.8-2,7.9-5.4,7.9-11.2v-3c0-7.7-4.8-10.2-7.9-11.1v-4.6h35.4l1.7,11.4      l-2.4,1.5c-2.9-3.4-6.3-7-11.3-7h-0.6c-6.4,0-9.2,2.9-9.2,9.2h5.1c4.4,0,5.9-2.8,6.4-4.5L427,21h3v15h-3l-0.2-0.7      c-0.6-1.7-2-4.6-6.4-4.6h-5.1c0,6.2,2.4,9.1,9.9,9.1h0.5c5.4,0,9.4-4,13.1-8.3L441.3,33.4z M419.1,7.9l5-7.8h9.7v1.1l-10,6.7      H419.1z"/>
				<path class="st5" d="M482.2,33.4l-4.6,12.3h-35v-4.6c4.8-2,7.9-5.4,7.9-11.2v-3c0-7.7-4.8-10.2-7.9-11.1v-4.6H478l1.7,11.4      l-2.4,1.5c-2.9-3.4-6.3-7-11.3-7h-0.6c-6.4,0-9.2,2.9-9.2,9.2h5.1c4.4,0,5.9-2.8,6.4-4.5l0.2-0.8h3v15h-3l-0.2-0.7      c-0.6-1.7-2-4.6-6.4-4.6h-5.1c0,6.2,2.4,9.1,9.9,9.1h0.5c5.4,0,9.4-4,13.1-8.3L482.2,33.4z"/>
				<path class="st5" d="M515.4,10.4l1.2,11.1l-4.1,1c-2.6-3.4-7.4-5.2-12.5-5.2c-4.2,0-7.7,1.3-7.7,3.8c0,2.1,2.4,3.1,7.6,3.8      l5,0.6c7.7,1,13.7,3.1,13.7,10c0,6.9-6.2,11.1-14.4,11.1c-4.4,0-8.2-1.2-12.2-3.4l-1.2,2.6h-4.7l-2.4-13.2l4.1-1.5      c3.5,5.3,9.1,8.9,16.1,8.9c4.1,0,7.6-1.3,7.6-4.1c0-2.7-3.2-3.4-7.7-3.9l-6-0.7c-3.4-0.4-12.8-1.9-12.8-10.1      c0-7,6.8-10.5,14.2-10.5c4,0,7.1,1,9.5,2.4l0.8-2.6H515.4z"/>
			</g>
		</g>
	</g>
</g>
<g id="Calque_3">
</g>
<g id="Dimension_Layer">
</g>
</svg>